<svg width="135" height="27" viewBox="0 0 135 27" fill="none" xmlns="http://www.w3.org/2000/svg">
<path d="M5.96825 11.5554C2.66666 11.5554 -9.62112e-08 14.3356 0 17.7777C9.54718e-08 21.1934 2.66666 23.9735 5.94283 24C5.13015 23.9735 4.49523 23.2851 4.49523 22.4378C4.49523 21.5905 5.15556 20.8756 5.99367 20.8756C9.54918 20.8756 17.4476 20.8756 20.927 20.8756C23.3904 20.8756 25.3968 18.7839 25.3968 16.2155C25.3968 13.6472 23.3904 11.5554 20.927 11.5554L5.96825 11.5554Z" fill="#F0B27A"/>
<path d="M10.6499 6.33006e-07C7.56838 7.72718e-07 5.0795 2.58159 5.0795 5.77784C5.0795 8.94952 7.56838 11.5311 10.6261 11.5557C9.86763 11.5311 9.27505 10.8919 9.27505 10.1051C9.27505 9.31829 9.89136 8.65448 10.6736 8.65448C13.9921 8.65448 21.3639 8.65448 24.6113 8.65448C26.9106 8.65448 28.7832 6.71214 28.7832 4.32726C28.7832 1.94233 26.9106 -1.04246e-07 24.6113 0L10.6499 6.33006e-07Z" fill="#001C4D"/>
<path d="M33.0472 21L39.0952 3.12H44.0392L50.0872 21H46.0312L44.8312 17.352H38.2792L37.0792 21H33.0472ZM39.3112 14.112H43.7992L41.0632 5.664H42.0712L39.3112 14.112ZM51.6813 21V7.896H55.2813V21H51.6813ZM51.6813 6.72V3.12H55.2813V6.72H51.6813ZM58.1797 21V3.12H65.7397C66.9717 3.12 68.0277 3.328 68.9077 3.744C69.7877 4.16 70.4597 4.76 70.9237 5.544C71.3877 6.312 71.6197 7.248 71.6197 8.352C71.6197 9.136 71.4037 9.888 70.9717 10.608C70.5397 11.312 69.8277 11.904 68.8357 12.384V10.56C69.7797 10.928 70.5077 11.368 71.0197 11.88C71.5317 12.392 71.8837 12.952 72.0757 13.56C72.2677 14.152 72.3637 14.776 72.3637 15.432C72.3637 17.192 71.7797 18.56 70.6117 19.536C69.4437 20.512 67.8197 21 65.7397 21H58.1797ZM61.8997 17.76H66.1717C66.9237 17.76 67.5237 17.544 67.9717 17.112C68.4197 16.68 68.6437 16.12 68.6437 15.432C68.6437 14.728 68.4197 14.16 67.9717 13.728C67.5237 13.296 66.9237 13.08 66.1717 13.08H61.8997V17.76ZM61.8997 9.84H66.0037C66.5797 9.84 67.0357 9.68 67.3717 9.36C67.7237 9.024 67.8997 8.584 67.8997 8.04C67.8997 7.496 67.7237 7.064 67.3717 6.744C67.0357 6.408 66.5797 6.24 66.0037 6.24H61.8997V9.84ZM79.19 21.288C78.134 21.288 77.23 21.064 76.478 20.616C75.742 20.152 75.182 19.512 74.798 18.696C74.414 17.88 74.222 16.928 74.222 15.84V7.896H77.822V15.552C77.822 16.048 77.918 16.488 78.11 16.872C78.318 17.24 78.606 17.528 78.974 17.736C79.342 17.944 79.758 18.048 80.222 18.048C80.702 18.048 81.118 17.944 81.47 17.736C81.838 17.528 82.118 17.24 82.31 16.872C82.518 16.488 82.622 16.048 82.622 15.552V7.896H86.222V21H82.862V18.408L83.054 18.984C82.75 19.768 82.254 20.352 81.566 20.736C80.894 21.104 80.102 21.288 79.19 21.288ZM95.0212 21.288C93.7412 21.288 92.5972 20.984 91.5892 20.376C90.5812 19.768 89.7812 18.944 89.1892 17.904C88.6132 16.864 88.3252 15.712 88.3252 14.448C88.3252 13.168 88.6212 12.016 89.2132 10.992C89.8052 9.952 90.6052 9.128 91.6132 8.52C92.6212 7.912 93.7492 7.608 94.9972 7.608C95.9572 7.608 96.8052 7.792 97.5412 8.16C98.2932 8.512 98.8852 9.016 99.3172 9.672L98.7652 10.392V2.832H102.365V21H99.0052V18.6L99.3412 19.344C98.8932 19.984 98.2852 20.472 97.5172 20.808C96.7492 21.128 95.9172 21.288 95.0212 21.288ZM95.4532 18.048C96.1092 18.048 96.6852 17.896 97.1812 17.592C97.6772 17.288 98.0612 16.864 98.3332 16.32C98.6212 15.776 98.7652 15.152 98.7652 14.448C98.7652 13.744 98.6212 13.12 98.3332 12.576C98.0612 12.032 97.6772 11.608 97.1812 11.304C96.6852 11 96.1092 10.848 95.4532 10.848C94.7972 10.848 94.2052 11.008 93.6772 11.328C93.1652 11.632 92.7652 12.056 92.4772 12.6C92.1892 13.128 92.0452 13.744 92.0452 14.448C92.0452 15.152 92.1892 15.776 92.4772 16.32C92.7652 16.864 93.1652 17.288 93.6772 17.592C94.2052 17.896 94.7972 18.048 95.4532 18.048ZM111.17 21.288C109.89 21.288 108.746 20.984 107.738 20.376C106.73 19.768 105.93 18.944 105.338 17.904C104.762 16.864 104.474 15.712 104.474 14.448C104.474 13.168 104.77 12.016 105.362 10.992C105.954 9.952 106.754 9.128 107.762 8.52C108.77 7.912 109.898 7.608 111.146 7.608C112.106 7.608 112.954 7.792 113.69 8.16C114.442 8.512 115.034 9.016 115.466 9.672L114.914 10.392V2.832H118.514V21H115.154V18.6L115.49 19.344C115.042 19.984 114.434 20.472 113.666 20.808C112.898 21.128 112.066 21.288 111.17 21.288ZM111.602 18.048C112.258 18.048 112.834 17.896 113.33 17.592C113.826 17.288 114.21 16.864 114.482 16.32C114.77 15.776 114.914 15.152 114.914 14.448C114.914 13.744 114.77 13.12 114.482 12.576C114.21 12.032 113.826 11.608 113.33 11.304C112.834 11 112.258 10.848 111.602 10.848C110.946 10.848 110.354 11.008 109.826 11.328C109.314 11.632 108.914 12.056 108.626 12.6C108.338 13.128 108.194 13.744 108.194 14.448C108.194 15.152 108.338 15.776 108.626 16.32C108.914 16.864 109.314 17.288 109.826 17.592C110.354 17.896 110.946 18.048 111.602 18.048ZM123.19 26.328C122.806 26.328 122.43 26.296 122.062 26.232C121.71 26.168 121.398 26.064 121.126 25.92V22.968C121.35 23.032 121.614 23.088 121.918 23.136C122.222 23.184 122.502 23.208 122.758 23.208C123.462 23.208 123.966 23.04 124.27 22.704C124.574 22.368 124.822 21.984 125.014 21.552L125.902 19.512L125.854 22.512L120.094 7.896H123.958L127.774 18.288H126.334L130.15 7.896H134.014L128.398 22.224C128.046 23.136 127.614 23.896 127.102 24.504C126.59 25.112 126.006 25.568 125.35 25.872C124.71 26.176 123.99 26.328 123.19 26.328Z" fill="#001C4D"/>
</svg>
